# xmcd CD database file
#
# Track frame offsets:
#	150
#	10453
#	22704
#	35491
#	48670
#	60347
#	75785
#	87502
#	100785
#	110437
#	127717
#	139446
#	157771
#
# Disc length: 2316 seconds
#
# Revision: 0
# Processed by: cddbd v1.5.2PL0 Copyright (c) Steve Scherf et al.
# Submitted via: CDex 1.70beta2
#
DISCID=90090a0d
DTITLE=Mary Allen-Keating - Put A Little Texas In Your Awing
DYEAR=2007
DGENRE=Country
TTITLE0=Put A Little Texas In You Swing
TTITLE1=Bill Bailey
TTITLE2=This Heartache's In Name
TTITLE3=You Belong To Me
TTITLE4=Deep Water
TTITLE5=Darling, Whaddaya Care?
TTITLE6=Walkin' After Midnight
TTITLE7=Let's Make Music In The Country
TTITLE8=I Wanna Be A Cowboy's Sweetheart
TTITLE9=Somewhere
TTITLE10=Waltz Across Texas
TTITLE11=Stay With You Tonight
TTITLE12=Crazy
EXTD=YEAR: 2007
EXTT0=
EXTT1=
EXTT2=
EXTT3=
EXTT4=
EXTT5=
EXTT6=
EXTT7=
EXTT8=
EXTT9=
EXTT10=
EXTT11=
EXTT12=
PLAYORDER=
